# xmcd
#
# Track frame offsets:
#	180
#	8976
#	15068
#	27340
#	41827
#	53462
#	66156
#	76486
#	90680
#	100526
#	110657
#	121702
#
# Disc length: 1736
#
# Revision: 1
# Processed by: cddbd v1.5.1PL0 Copyright (c) Steve Scherf et al.
# Submitted via: CDex 1.51
# Normalized: r0:TDELIM( - )
#
DISCID=8406c60c
DTITLE=Various Artist - Laid Back Country
DYEAR=1900
DGENRE=Country
TTITLE0=Waylon Jennings - Love's Gonna Live Here
TTITLE1=Jim Reeves - Have I Told You Lately That I Love You
TTITLE2=Johnny Paycheck - Crazy Arms
TTITLE3=Tammy Wynette - Crying In The Rain
TTITLE4=Dolly Parton - Makin' Believe
TTITLE5=Claude King - Wolverton Mountain
TTITLE6=Carl Perkins - Daddy Sang Bass
TTITLE7=Jimmy Dean - Release Me
TTITLE8=Ned Miller - From A Jack To A King
TTITLE9=Porter Wagoner - Green Green Grass Of Home
TTITLE10=Johnny Russell - Blue Eyes Crying In The Rain
TTITLE11=Sonny James - Bimbo
EXTD=
EXTT0=
EXTT1=
EXTT2=
EXTT3=
EXTT4=
EXTT5=
EXTT6=
EXTT7=
EXTT8=
EXTT9=
EXTT10=
EXTT11=
PLAYORDER=
